<?xml version="1.0" encoding="UTF-8"?>
<svg id="Layer_2" xmlns="http://www.w3.org/2000/svg" viewBox="0 0 450.85 342.01">
  <g id="Layer_1-2" data-name="Layer_1">
    <g>
      <path d="M352.84,297.75v-37.19c.2-.16.32-.35.47-.36q5.64-.64,5.64,5.06c.01,13.67.05,27.34-.01,41.01,0,1.16-.66,3.33-1.02,3.33-2.15,0-4.61,1.32-6.33-1.44-3.64-5.83-7.49-11.54-11.29-17.27-4.06-6.11-8.16-12.18-12.26-18.26-.27-.41-.65-.75-1.44-1.63v38.64h-6.07v-49.6c2.1,0,4.25-.2,6.34.1.84.12,1.68,1.23,2.25,2.07,6.82,10.25,13.59,20.53,20.38,30.79.93,1.41,1.93,2.77,3.34,4.77Z"/>
      <path d="M10.4,285.73c-2.67,1.85-4.57,3.7-4.29,7.3.34,4.5.12,9.05.11,13.58,0,.97-.13,1.94-.21,2.99H0v-49.37h6.15v21.67c5.71-5.29,10.72-9.94,15.73-14.59,1.06-.99,2.25-1.88,3.12-3.02,3.2-4.18,7.44-5,12.85-3.87-7.63,7.18-15.07,14.17-22.69,21.34,7.84,9.16,15.64,18.29,23.47,27.45-4.36,1.56-7.75.75-10.48-2.49-5.36-6.37-10.7-12.76-16.06-19.14-.51-.61-1.08-1.18-1.69-1.85Z"/>
      <path d="M417.93,309.22c-.5.27-.65.41-.81.43q-5.46.65-5.44-4.73c0-13.76-.02-27.52-.03-41.28,0-1.07,0-2.14,0-3.43h6.3v21.41c.96-.75,1.52-1.12,2.01-1.57,5.62-5.26,11.22-10.53,16.83-15.8q4.95-4.65,12.66-3.97c-7.71,7.34-15.1,14.38-22.61,21.52,8,9.24,15.84,18.3,24.02,27.74-4.75.46-8.47.75-11.61-3.5-4.78-6.46-10.32-12.36-15.54-18.49-.46-.54-.92-1.08-1.38-1.62-3.23,1.94-4.76,4.28-4.48,8.08.37,5.11.09,10.26.09,15.2Z"/>
      <path d="M161.66,260.25q6.01-.66,6.04,5.24c.02,7.87-.07,15.75.1,23.62.06,2.77.39,5.63,1.17,8.28,1.52,5.15,5.24,7.45,11.23,7.51,6.05.06,10.1-2.29,11.57-7.44.91-3.17,1.23-6.58,1.3-9.89.16-7.96,0-15.93-.02-23.89,0-1.07,0-2.14,0-3.44h6.16c.06.85.16,1.64.17,2.43.02,8.78.06,17.56.02,26.34,0,2.07-.1,4.17-.43,6.22-1.67,10.41-10.2,16.69-20.71,15.35-10.4-1.33-15.97-6.6-16.48-17.12-.54-10.99-.12-22.02-.12-33.2Z"/>
      <path d="M91.95,309.39c-.24.14-.32.21-.4.22-5.49.68-5.46.67-7.4-4.37-1.1-2.84-1.58-6.67-3.69-8.17-2-1.42-5.74-.42-8.72-.44-3.08-.02-6.16.12-9.22-.02-1.77-.08-2.59.58-3.09,2.23-.75,2.51-1.91,4.91-2.53,7.44-.68,2.75-2.09,3.99-4.94,3.51-.68-.12-1.4-.02-2.52-.02.4-1.31.66-2.32,1.02-3.3,5.47-14.84,11.03-29.65,16.38-44.54,1.03-2.86,3.12-1.72,4.87-2.04,1.59-.29,2.43.41,2.99,1.96,5.54,15.2,11.16,30.38,16.74,45.56.24.65.35,1.35.52,1.98ZM70.68,267.69c-2.89,8.18-5.51,15.62-8.2,23.24h16.35c-2.69-7.67-5.27-15.04-8.15-23.24Z"/>
      <path d="M116.71,309.64h-6.07v-49.3c6.97,0,13.97-.6,20.81.17,6.84.77,11.02,6.81,11.09,14.01.08,8-4.16,13.94-11.6,15.53-3.5.75-7.17.7-10.77.97-1.06.08-2.12.01-3.46.01v18.61ZM116.89,265.78v19.75c5.15-.08,10.14.64,14.78-1.8,3.41-1.79,5.08-5.73,4.49-10.5-.49-3.91-2.93-6.95-6.82-7.36-4.08-.42-8.23-.09-12.44-.09Z"/>
      <path d="M220.53,301.54c4.79,1.13,9.34,2.61,14.01,3.16,2.62.31,5.56-.55,8.11-1.52,2.93-1.11,4.28-3.74,4.37-6.92.08-3.07-1.43-5.25-4.08-6.48-2.53-1.18-5.22-2.01-7.83-3.01-2.7-1.04-5.51-1.86-8.05-3.19-8.35-4.4-9.12-15.68-1.64-21.46,6.58-5.09,17.75-3.55,23.61-.74.44.21.84.97.88,1.5.11,1.59.04,3.2.04,4.83-3.17-.98-6.02-2.28-8.99-2.67-3.07-.41-6.31-.27-9.36.26-2.89.5-4.66,2.72-5.05,5.71-.38,2.98.74,5.47,3.4,6.83,2.72,1.39,5.64,2.39,8.49,3.51,2.35.92,4.81,1.6,7.1,2.66,4.92,2.28,7.76,5.99,7.73,11.67-.03,5.79-2.36,10.18-7.57,12.78-6.09,3.03-12.45,2.58-18.82,1-.53-.13-1.04-.3-1.56-.47-5.31-1.72-5.53-2.08-4.79-7.45Z"/>
      <path d="M287.98,309.68h-6.31c0-1.12,0-2.16,0-3.2-.05-12.59-.16-25.17-.1-37.76.01-2.53-.79-3.32-3.26-3.14-2.88.21-5.79.07-8.69.06-3.62-.01-3.63-.02-3.56-3.53.01-.53.08-1.06.14-1.85h36.38c.08.54.21,1.06.24,1.59.19,3.65.18,3.67-3.39,3.69-3.71.02-7.41,0-11.46,0v44.14Z"/>
      <path d="M387.81,309.63h-5.76v-49.44h5.76v49.44Z"/>
      <path d="M276.98,339.54h3.69c.68,1.67.21,2.3-1.45,2.26-3.16-.07-6.33.09-9.48-.05-5.35-.24-9.36-4.72-8.99-9.87.38-5.21,4.88-9.07,10.17-8.72,5.32.36,9.41,4.62,8.75,9.67-.29,2.25-1.72,4.36-2.7,6.7ZM270.25,339.27c4.07.01,7.16-2.98,7.14-6.9-.02-3.91-3.15-6.91-7.19-6.88-3.91.03-6.9,2.96-6.96,6.81-.06,3.98,2.93,6.96,7.02,6.97Z"/>
      <path d="M150.46,341.78c-5.64.05-9.82-3.94-9.8-9.35.02-5.28,4.11-9.23,9.6-9.28,5.61-.04,9.83,3.98,9.8,9.35-.02,5.26-4.13,9.23-9.61,9.27ZM150.33,325.49c-4.24.03-7.25,3.03-7.16,7.15.08,3.99,3.08,6.81,7.23,6.81,4.18,0,7.3-3.1,7.2-7.15-.1-3.94-3.18-6.84-7.27-6.81Z"/>
      <path d="M110.95,323.3c2.58,0,4.93-.17,7.25.05,2.07.19,4.13,1.17,4.22,3.47.06,1.64-.92,3.33-1.44,4.99-.27-.05-.54-.1-.81-.15.69.5,1.46.93,2.06,1.53,2.54,2.51,1.37,7.08-2.27,7.95-2.83.67-5.84.6-9,.87v-18.71ZM113.14,339.49c2.79-.28,5.67.88,7.45-1.77.49-.73.37-2.5-.2-3.19-1.97-2.36-4.69-1.24-7.25-1.35v6.31ZM113.13,330.68c1.69,0,3.24.35,4.5-.11,1.02-.37,2.16-1.62,2.33-2.63.11-.65-1.33-2-2.3-2.28-1.37-.4-2.95-.1-4.53-.1v5.12Z"/>
      <path d="M341.4,330.66c.76,1.72.5,2.49-1.26,2.45-2.24-.06-4.48-.01-6.9-.01v6.37c2.67,0,5.27-.08,7.85.06.63.03,1.21.8,1.81,1.24-.6.34-1.19.97-1.8.99-3.32.1-6.63.05-10.13.05v-18.63c3.46,0,6.77-.05,10.08.05.48.01.95.72,1.42,1.11-.48.38-.94,1.08-1.43,1.1-2.52.11-5.04.05-7.77.05v5.18h8.12Z"/>
      <path d="M300.43,323.55c0,3.42-.03,6.84,0,10.26.04,3.77,1.63,5.64,4.69,5.64,3.08,0,4.69-1.83,4.77-5.61.07-3.42.02-6.85.02-10.27.23-.19.45-.37.68-.56.53.55,1.52,1.09,1.53,1.65.07,3.79.14,7.6-.2,11.37-.34,3.7-2.93,5.71-6.66,5.75-3.77.04-6.5-1.86-6.87-5.5-.4-3.94-.25-7.93-.18-11.9,0-.49.97-.97,1.48-1.45.24.21.48.41.73.62Z"/>
      <path d="M190.7,322.94c.48.55,1.35,1.1,1.36,1.66.07,3.7.15,7.42-.16,11.1-.34,4.02-2.95,6.12-6.92,6.08-3.88-.03-6.56-2.31-6.82-6.24-.24-3.6-.14-7.23-.04-10.84.02-.62.82-1.22,1.26-1.82.32.13.65.26.97.4,0,3.67-.07,7.35.02,11.02.09,3.68,2.13,5.54,5.43,5.14,2.42-.29,3.85-1.96,4-4.99.13-2.7.04-5.42.05-8.13,0-.97,0-1.94,0-2.91l.83-.46Z"/>
      <path d="M215.26,325.48c-1.57,0-3,.1-4.41-.05-.52-.06-.98-.69-1.46-1.06.46-.4.9-1.14,1.37-1.15,4.23-.09,8.46-.05,12.66-.05.26,2.24.26,2.26-1.61,2.31-1.25.03-2.49,0-4.13,0,0,3.44,0,6.66,0,9.87,0,1.35.14,2.73-.05,4.06-.11.81-.71,1.55-1.09,2.32-.38-.74-1.07-1.47-1.09-2.22-.11-3.7-.04-7.4-.05-11.11,0-.88-.08-1.76-.14-2.93Z"/>
      <g>
        <path d="M159.45,142.72c-7.44-3.43-14.13-6.36-20.68-9.56-13.5-6.59-26.11-14.34-34.79-27.14-8.04-11.86-10.09-24.64-3.99-37.64,5.75-12.24,5.68-23.83.41-36.08-1.96-4.55-2.8-9.88-2.91-14.88-.19-9.13,5.38-15.4,14.39-16.88,10.52-1.73,20.63,1.05,30.66,3.64,32.08,8.31,58.42,26.26,81.77,49.16,5.12,5.02,10.4,9.88,15.84,15.02.3-2.21.57-4.53.94-6.83,1.57-9.9,6.29-18.25,15.87-21.39,13.92-4.55,23.3-13.34,30.48-25.67,3.77-6.47,9.92-10.84,17.34-12.95,9.81-2.79,15.86-.23,20.5,8.8,5.29,10.3,6.45,21.54,7.07,32.83,2.38,43.32-11,81.11-40.04,113.37-5.43,6.03-10.45,12.43-15.86,18.49-1.16,1.29-3.16,1.83-4.77,2.71-.43-1.88-1.42-3.82-1.21-5.62,1.78-15.04-.72-29.43-6.71-43.17-24.11-55.32-64.06-93.36-122.28-111.13-5.42-1.65-11.17-2.38-16.83-3.03-7.51-.87-10.19,1.54-9.83,8.99.21,4.46,1.23,8.9,2.19,13.29.97,4.39,2.41,8.68,3.49,13.05,1.46,5.92.25,11.37-3.47,16.18-10.34,13.41-7,27.55,2.66,38.11,10.67,11.66,24.38,19,38.17,26.07,16.86,8.64,33.95,16.81,50.93,25.21,1.29.64,2.49,1.44,3.41,2.98-7.1-1.51-14.18-3.19-21.32-4.46-5.76-1.03-11.61-2.13-17.43-2.16-5.16-.03-10.57.63-15.43,2.29-11.33,3.87-15.63,12.57-12.79,24.29,5.58,23.03,30.57,38.02,55.76,26.28,8.84-4.12,17.05-9.55,25.83-13.81,7.94-3.86,16.14-7.28,24.47-10.19,3.36-1.17,7.43-.89,11.07-.4,1.38.18,3.45,2.83,3.38,4.27-.07,1.44-2.36,3.88-3.78,3.96-11.7.64-21.68,5.9-31.57,11.32-13.05,7.15-25.77,14.99-40.49,18.44-33.91,7.95-61.04-23.98-55.87-54.53,1.55-9.2,7.92-14.14,15.91-17.53,2.85-1.21,5.76-2.25,9.51-3.71ZM279.21,159.03c3.75-4.41,6.7-7.95,9.72-11.42,22.18-25.53,32.75-55.36,32.3-89-.18-13.54-1.66-27.04-7.9-39.45-2.85-5.68-7.4-6.84-12.45-2.92-2.18,1.69-4.03,4.08-5.38,6.52-2.18,3.93-3.92,8.11-5.67,12.26-2.36,5.57-6.49,8.84-12.32,10.18-3.36.78-6.74,1.57-10.01,2.64-13.36,4.39-19.41,15.1-16.64,28.84,1.95,9.68,7.04,17.84,12.25,25.92,8.13,12.61,13.25,26.24,14.67,41.21.45,4.7.89,9.4,1.44,15.23Z"/>
        <path d="M323.64,151.01c-2.7,2.59-5.4,5.18-8.09,7.77.15.23.3.46.45.69.76-.23,1.56-.36,2.26-.71,13.09-6.67,25.11-14.85,35-25.83,1.39-1.55,2.13-4.03,2.39-6.18.49-3.93,3.19-7.06,6.82-7.11,3.15-.05,4.2,1.84,4.26,4.61.08,3.92-2.68,6.55-6.76,6.94-1.58.15-3.55.67-4.55,1.76-12.1,13.2-26.66,22.86-42.88,30.13-2.64,1.18-3.76,2.54-4.18,5.48-1.17,8.16-5.8,14.78-10.83,20.99-13.18,16.26-29.71,27.95-49.34,35.14-2.44.89-5.39.4-8.1.55,1.02-2.38,1.58-5.14,3.15-7.09,15.64-19.4,33.66-36.41,53.15-51.87,3.14-2.49,6.58-4.85,11.16-3.2.69.25,2.07-.93,2.93-1.68,4.2-3.64,8.33-7.35,12.48-11.04.23.21.46.43.69.64Z"/>
        <path d="M322.95,150.36c5.44-6.92,10.87-13.83,16.31-20.75-.47-.17-.94-.33-1.41-.5-1-2.84-2.52-5.62-2.87-8.54-.38-3.19,1.68-5.66,5.03-5.68,3.18-.01,4.11,2.64,4.17,5.4.03,1.3,0,2.88-.68,3.88-6.19,9.25-10.95,19.59-19.86,26.82-.23-.21-.46-.43-.69-.64Z"/>
      </g>
      <path d="M242.89,332.54c0,2.53.06,5.07-.04,7.6-.02.55-.6,1.07-.92,1.6-.44-.53-1.25-1.06-1.26-1.6-.09-5.16-.08-10.32,0-15.48,0-.49.73-.98,1.12-1.46.37.49,1.03.96,1.05,1.46.11,2.62.05,5.25.05,7.87Z"/>
    </g>
  </g>
</svg>