<?xml version="1.0" encoding="UTF-8"?>
<svg id="Layer_2" xmlns="http://www.w3.org/2000/svg" viewBox="0 0 748.99 423.09">
  <defs>
    <style>
      .cls-1 {
        fill: #fff;
      }
    </style>
  </defs>
  <g id="Layer_1-2" data-name="Layer_1">
    <g>
      <path class="cls-1" d="M586.17,349.56v-61.79c.32-.26.54-.58.79-.6q9.37-1.06,9.37,8.4c.02,22.71.08,45.42-.02,68.14,0,1.94-1.1,5.52-1.69,5.53-3.58,0-7.66,2.19-10.52-2.4-6.05-9.69-12.44-19.17-18.76-28.69-6.74-10.14-13.56-20.24-20.36-30.34-.46-.68-1.08-1.24-2.39-2.72v64.19h-10.08v-82.41c3.49,0,7.07-.33,10.53.16,1.39.2,2.8,2.04,3.73,3.44,11.33,17.02,22.57,34.1,33.85,51.16,1.55,2.34,3.21,4.6,5.55,7.92Z"/>
      <path class="cls-1" d="M17.28,329.6c-4.43,3.07-7.59,6.15-7.13,12.13.57,7.48.2,15.03.18,22.55,0,1.61-.22,3.22-.35,4.98H0v-82.02h10.21v35.99c9.48-8.79,17.82-16.51,26.14-24.24,1.76-1.64,3.73-3.13,5.18-5.02,5.32-6.94,12.36-8.31,21.35-6.42-12.68,11.92-25.03,23.54-37.69,35.45,13.02,15.22,25.98,30.38,39,45.6-7.24,2.6-12.87,1.25-17.41-4.14-8.91-10.58-17.78-21.2-26.68-31.79-.85-1.01-1.79-1.96-2.81-3.07Z"/>
      <path class="cls-1" d="M694.31,368.61c-.83.45-1.08.68-1.35.71q-9.06,1.09-9.04-7.86c0-22.86-.04-45.72-.05-68.58,0-1.78,0-3.56,0-5.69h10.47v35.57c1.6-1.25,2.53-1.86,3.33-2.61,9.33-8.73,18.65-17.49,27.96-26.24q8.22-7.72,21.04-6.6c-12.81,12.19-25.09,23.88-37.56,35.75,13.28,15.35,26.32,30.41,39.9,46.09-7.9.76-14.07,1.25-19.29-5.82-7.94-10.73-17.14-20.53-25.81-30.72-.77-.9-1.53-1.8-2.29-2.68-5.36,3.22-7.9,7.11-7.44,13.43.62,8.48.15,17.04.15,25.26Z"/>
      <path class="cls-1" d="M268.56,287.27q9.99-1.1,10.03,8.71c.04,13.08-.11,26.16.16,39.24.1,4.61.65,9.35,1.95,13.76,2.53,8.55,8.71,12.38,18.65,12.48,10.05.1,16.78-3.81,19.23-12.36,1.5-5.26,2.05-10.93,2.16-16.43.26-13.22,0-26.46-.03-39.69,0-1.78,0-3.56,0-5.71h10.24c.1,1.41.27,2.72.27,4.03.04,14.58.1,29.17.04,43.75-.01,3.45-.17,6.93-.71,10.33-2.77,17.29-16.95,27.73-34.4,25.49-17.28-2.22-26.53-10.96-27.38-28.44-.89-18.25-.2-36.58-.2-55.15Z"/>
      <path class="cls-1" d="M152.75,368.9c-.41.23-.53.35-.67.37-9.12,1.13-9.07,1.11-12.3-7.26-1.82-4.73-2.63-11.08-6.13-13.57-3.32-2.37-9.54-.7-14.49-.73-5.11-.04-10.23.19-15.33-.04-2.95-.13-4.31.97-5.13,3.7-1.25,4.17-3.17,8.15-4.21,12.36-1.13,4.58-3.48,6.63-8.21,5.82-1.14-.19-2.33-.03-4.18-.03.67-2.18,1.09-3.86,1.69-5.48,9.09-24.65,18.32-49.26,27.21-73.99,1.71-4.76,5.18-2.86,8.1-3.39,2.64-.48,4.03.68,4.97,3.26,9.21,25.25,18.54,50.46,27.81,75.69.4,1.08.59,2.24.86,3.29ZM117.42,299.62c-4.79,13.58-9.16,25.95-13.63,38.61h27.16c-4.47-12.75-8.75-24.98-13.53-38.61Z"/>
      <path class="cls-1" d="M193.89,369.31h-10.08v-81.9c11.58,0,23.2-1,34.57.28,11.36,1.28,18.3,11.31,18.43,23.28.14,13.28-6.92,23.16-19.28,25.79-5.81,1.24-11.91,1.17-17.89,1.61-1.75.13-3.53.02-5.75.02v30.91ZM194.19,296.45v32.81c8.55-.13,16.84,1.06,24.55-2.99,5.66-2.98,8.44-9.52,7.45-17.44-.81-6.49-4.86-11.55-11.33-12.22-6.78-.7-13.68-.16-20.67-.16Z"/>
      <path class="cls-1" d="M366.37,355.87c7.95,1.88,15.52,4.33,23.27,5.25,4.36.52,9.24-.91,13.48-2.53,4.87-1.85,7.11-6.22,7.26-11.49.14-5.1-2.37-8.72-6.78-10.77-4.2-1.95-8.67-3.33-13.01-5-4.48-1.72-9.16-3.08-13.38-5.31-13.87-7.3-15.16-26.04-2.73-35.66,10.94-8.46,29.48-5.9,39.23-1.22.74.35,1.4,1.61,1.46,2.49.19,2.65.07,5.32.07,8.03-5.26-1.63-10-3.78-14.93-4.44-5.09-.67-10.48-.45-15.55.42-4.8.83-7.74,4.52-8.38,9.49-.64,4.95,1.23,9.08,5.65,11.35,4.52,2.31,9.37,3.98,14.11,5.83,3.91,1.53,8,2.66,11.8,4.42,8.18,3.79,12.89,9.96,12.84,19.39-.06,9.62-3.92,16.92-12.57,21.22-10.11,5.03-20.68,4.29-31.27,1.67-.87-.22-1.73-.5-2.59-.78-8.82-2.85-9.18-3.46-7.96-12.38Z"/>
      <path class="cls-1" d="M478.41,369.39h-10.48c0-1.86,0-3.59,0-5.32-.08-20.91-.27-41.82-.16-62.73.02-4.21-1.31-5.51-5.41-5.22-4.79.34-9.62.12-14.44.11-6.02-.02-6.03-.04-5.91-5.87.02-.88.13-1.76.23-3.08h60.44c.14.9.35,1.77.4,2.64.32,6.06.31,6.09-5.62,6.13-6.16.04-12.31,0-19.04,0v73.33Z"/>
      <path class="cls-1" d="M644.26,369.3h-9.58v-82.13h9.58v82.13Z"/>
      <path class="cls-1" d="M460.14,418.99h6.14c1.13,2.78.36,3.82-2.41,3.76-5.25-.11-10.51.15-15.75-.08-8.9-.4-15.55-7.84-14.93-16.4.63-8.66,8.11-15.07,16.9-14.48,8.83.6,15.63,7.67,14.54,16.07-.49,3.74-2.85,7.24-4.48,11.14ZM448.96,418.54c6.75.02,11.89-4.95,11.86-11.46-.03-6.5-5.24-11.48-11.95-11.44-6.49.04-11.47,4.91-11.57,11.31-.1,6.62,4.87,11.56,11.66,11.59Z"/>
      <path class="cls-1" d="M249.96,422.71c-9.36.08-16.31-6.55-16.28-15.53.03-8.78,6.82-15.34,15.95-15.41,9.31-.07,16.32,6.61,16.28,15.53-.04,8.74-6.86,15.33-15.96,15.41ZM249.74,395.64c-7.04.04-12.04,5.04-11.9,11.88.14,6.63,5.12,11.32,12.01,11.32,6.94,0,12.13-5.16,11.96-11.88-.16-6.55-5.29-11.36-12.07-11.32Z"/>
      <path class="cls-1" d="M184.32,392.01c4.29,0,8.2-.28,12.04.08,3.43.32,6.86,1.94,7.01,5.77.11,2.73-1.53,5.52-2.39,8.29-.45-.08-.9-.17-1.35-.25,1.15.84,2.42,1.55,3.42,2.54,4.21,4.17,2.28,11.76-3.78,13.21-4.7,1.12-9.7.99-14.95,1.45v-31.08ZM187.96,418.9c4.64-.47,9.41,1.45,12.38-2.94.81-1.21.62-4.16-.33-5.29-3.28-3.92-7.8-2.06-12.05-2.25v10.48ZM187.95,404.27c2.8,0,5.38.57,7.47-.18,1.69-.61,3.59-2.69,3.87-4.37.18-1.08-2.21-3.32-3.81-3.79-2.28-.66-4.9-.17-7.53-.17v8.5Z"/>
      <path class="cls-1" d="M567.17,404.23c1.27,2.86.83,4.14-2.09,4.07-3.72-.09-7.44-.02-11.45-.02v10.58c4.44,0,8.75-.14,13.04.1,1.04.06,2.01,1.34,3.01,2.05-1,.57-1.98,1.61-2.99,1.64-5.51.16-11.02.08-16.83.08v-30.94c5.74,0,11.25-.08,16.75.09.8.02,1.57,1.2,2.36,1.85-.79.64-1.56,1.79-2.37,1.83-4.18.19-8.37.09-12.91.09v8.6h13.49Z"/>
      <path class="cls-1" d="M499.1,392.42c0,5.68-.05,11.37.01,17.05.07,6.26,2.7,9.37,7.8,9.37,5.12,0,7.8-3.03,7.93-9.32.12-5.68.03-11.37.03-17.06.38-.31.75-.62,1.13-.93.89.91,2.53,1.81,2.54,2.74.11,6.29.24,12.63-.33,18.88-.56,6.14-4.87,9.49-11.06,9.56-6.26.07-10.81-3.1-11.42-9.13-.66-6.54-.41-13.18-.3-19.77.01-.82,1.6-1.61,2.46-2.41.4.34.8.68,1.21,1.02Z"/>
      <path class="cls-1" d="M316.8,391.42c.79.92,2.24,1.83,2.26,2.76.12,6.15.26,12.32-.26,18.44-.56,6.67-4.9,10.16-11.49,10.1-6.45-.06-10.89-3.83-11.33-10.37-.4-5.98-.24-12-.07-18,.03-1.03,1.37-2.02,2.1-3.03.54.22,1.08.44,1.61.66,0,6.1-.11,12.2.03,18.3.15,6.11,3.54,9.2,9.02,8.54,4.01-.49,6.4-3.25,6.65-8.29.22-4.49.07-9,.09-13.51,0-1.61,0-3.22,0-4.84l1.39-.77Z"/>
      <path class="cls-1" d="M357.6,395.63c-2.62,0-4.99.16-7.32-.08-.86-.09-1.62-1.14-2.43-1.76.76-.67,1.5-1.89,2.27-1.91,7.02-.15,14.05-.09,21.03-.09.44,3.73.44,3.76-2.68,3.84-2.07.06-4.14.01-6.86.01,0,5.72,0,11.06,0,16.41,0,2.25.22,4.53-.08,6.74-.18,1.34-1.18,2.58-1.81,3.86-.63-1.23-1.78-2.44-1.81-3.69-.19-6.15-.07-12.3-.09-18.45,0-1.46-.13-2.93-.23-4.87Z"/>
      <g>
        <path class="cls-1" d="M307.75,142.72c-7.44-3.43-14.13-6.36-20.68-9.56-13.5-6.59-26.11-14.34-34.79-27.14-8.04-11.86-10.09-24.64-3.99-37.64,5.75-12.24,5.68-23.83.41-36.08-1.96-4.55-2.8-9.88-2.91-14.88-.19-9.13,5.38-15.4,14.39-16.88,10.52-1.73,20.63,1.05,30.66,3.64,32.08,8.31,58.42,26.26,81.77,49.16,5.12,5.02,10.4,9.88,15.84,15.02.3-2.21.57-4.53.94-6.83,1.57-9.9,6.29-18.25,15.87-21.39,13.92-4.55,23.3-13.34,30.48-25.67,3.77-6.47,9.92-10.84,17.34-12.95,9.81-2.79,15.86-.23,20.5,8.8,5.29,10.3,6.45,21.54,7.07,32.83,2.38,43.32-11,81.11-40.04,113.37-5.43,6.03-10.45,12.43-15.86,18.49-1.16,1.29-3.16,1.83-4.77,2.71-.43-1.88-1.42-3.82-1.21-5.62,1.78-15.04-.72-29.43-6.71-43.17-24.11-55.32-64.06-93.36-122.28-111.13-5.42-1.65-11.17-2.38-16.83-3.03-7.51-.87-10.19,1.54-9.83,8.99.21,4.46,1.23,8.9,2.19,13.29.97,4.39,2.41,8.68,3.49,13.05,1.46,5.92.25,11.37-3.47,16.18-10.34,13.41-7,27.55,2.66,38.11,10.67,11.66,24.38,19,38.17,26.07,16.86,8.64,33.95,16.81,50.93,25.21,1.29.64,2.49,1.44,3.41,2.98-7.1-1.51-14.18-3.19-21.32-4.46-5.76-1.03-11.61-2.13-17.43-2.16-5.16-.03-10.57.63-15.43,2.29-11.33,3.87-15.63,12.57-12.79,24.29,5.58,23.03,30.57,38.02,55.76,26.28,8.84-4.12,17.05-9.55,25.83-13.81,7.94-3.86,16.14-7.28,24.47-10.19,3.36-1.17,7.43-.89,11.07-.4,1.38.18,3.45,2.83,3.38,4.27-.07,1.44-2.36,3.88-3.78,3.96-11.7.64-21.68,5.9-31.57,11.32-13.05,7.15-25.77,14.99-40.49,18.44-33.91,7.95-61.04-23.98-55.87-54.53,1.55-9.2,7.92-14.14,15.91-17.53,2.85-1.21,5.76-2.25,9.51-3.71ZM427.51,159.03c3.75-4.41,6.7-7.95,9.72-11.42,22.18-25.53,32.75-55.36,32.3-89-.18-13.54-1.66-27.04-7.9-39.45-2.85-5.68-7.4-6.84-12.45-2.92-2.18,1.69-4.03,4.08-5.38,6.52-2.18,3.93-3.92,8.11-5.67,12.26-2.36,5.57-6.49,8.84-12.32,10.18-3.36.78-6.74,1.57-10.01,2.64-13.36,4.39-19.41,15.1-16.64,28.84,1.95,9.68,7.04,17.84,12.25,25.92,8.13,12.61,13.25,26.24,14.67,41.21.45,4.7.89,9.4,1.44,15.23Z"/>
        <path class="cls-1" d="M471.94,151.01c-2.7,2.59-5.4,5.18-8.09,7.77.15.23.3.46.45.69.76-.23,1.56-.36,2.26-.71,13.09-6.67,25.11-14.85,35-25.83,1.39-1.55,2.13-4.03,2.39-6.18.49-3.93,3.19-7.06,6.82-7.11,3.15-.05,4.2,1.84,4.26,4.61.08,3.92-2.68,6.55-6.76,6.94-1.58.15-3.55.67-4.55,1.76-12.1,13.2-26.66,22.86-42.88,30.13-2.64,1.18-3.76,2.54-4.18,5.48-1.17,8.16-5.8,14.78-10.83,20.99-13.18,16.26-29.71,27.95-49.34,35.14-2.44.89-5.39.4-8.1.55,1.02-2.38,1.58-5.14,3.15-7.09,15.64-19.4,33.66-36.41,53.15-51.87,3.14-2.49,6.58-4.85,11.16-3.2.69.25,2.07-.93,2.93-1.68,4.2-3.64,8.33-7.35,12.48-11.04.23.21.46.43.69.64Z"/>
        <path class="cls-1" d="M471.25,150.36c5.44-6.92,10.87-13.83,16.31-20.75-.47-.17-.94-.33-1.41-.5-1-2.84-2.52-5.62-2.87-8.54-.38-3.19,1.68-5.66,5.03-5.68,3.18-.01,4.11,2.64,4.17,5.4.03,1.3,0,2.88-.68,3.88-6.19,9.25-10.95,19.59-19.86,26.82-.23-.21-.46-.43-.69-.64Z"/>
      </g>
      <path class="cls-1" d="M403.51,407.36c0,4.21.09,8.43-.07,12.63-.04.91-.99,1.78-1.53,2.66-.73-.89-2.07-1.76-2.09-2.66-.16-8.57-.14-17.14,0-25.71.01-.82,1.21-1.62,1.86-2.43.61.81,1.71,1.6,1.74,2.43.18,4.35.08,8.72.08,13.08Z"/>
    </g>
  </g>
</svg>